<svg xmlns="http://www.w3.org/2000/svg" viewBox="0 0 512 512">
  <defs>
    <linearGradient id="cap" x1="0" y1="0" x2="0" y2="1">
      <stop offset="0" stop-color="#A86B45"/>
      <stop offset="1" stop-color="#6B4127"/>
    </linearGradient>
    <linearGradient id="stem" x1="0" y1="0" x2="1" y2="0">
      <stop offset="0" stop-color="#F3E8D6"/>
      <stop offset="1" stop-color="#DCC9AC"/>
    </linearGradient>
  </defs>
  <rect width="512" height="512" fill="#EFE5D6"/>
  <g transform="translate(96 96) scale(4)">
    <path d="M30 47 C30 58 28 65 26 70 Q40 75 54 70 C52 65 50 58 50 47 Z" fill="url(#stem)" stroke="#B89A76" stroke-width="1.2"/>
    <path d="M9 44 C9 24 23 11 40 11 C57 11 71 24 71 44 C71 48 68 50 64 50 L16 50 C12 50 9 48 9 44 Z" fill="url(#cap)"/>
    <path d="M16 50 Q40 57 64 50" fill="none" stroke="#D9BF9C" stroke-width="3" stroke-linecap="round"/>
    <ellipse cx="29" cy="25" rx="10" ry="5" transform="rotate(-28 29 25)" fill="#fff" opacity=".22"/>
    <circle cx="48" cy="22" r="2.2" fill="#fff" opacity=".18"/>
    <circle cx="56" cy="33" r="1.6" fill="#fff" opacity=".18"/>
    <path d="M18 72 q4 -6 8 0 M52 72 q4 -7 9 0" fill="none" stroke="#6E8452" stroke-width="2.4" stroke-linecap="round"/>
  </g>
</svg>
